<?xml version="1.0" encoding="UTF-8" standalone="no"?>
<!DOCTYPE svg PUBLIC "-//W3C//DTD SVG 1.1//EN"
 "http://www.w3.org/Graphics/SVG/1.1/DTD/svg11.dtd">
<!-- Generated by graphviz version 2.42.4 (0)
 -->
<!-- Title: G Pages: 1 -->
<svg width="1475pt" height="151pt"
 viewBox="0.00 0.00 1475.00 151.00" xmlns="http://www.w3.org/2000/svg" xmlns:xlink="http://www.w3.org/1999/xlink">
<g id="graph0" class="graph" transform="scale(1 1) rotate(0) translate(18 133)">
<title>G</title>
<polygon fill="#f7f9fc" stroke="transparent" points="-18,18 -18,-133 1457,-133 1457,18 -18,18"/>
<!-- browser -->
<g id="node1" class="node">
<title>browser</title>
<path fill="#e0f2fe" stroke="#334155" d="M137,-79C137,-79 12,-79 12,-79 6,-79 0,-73 0,-67 0,-67 0,-55 0,-55 0,-49 6,-43 12,-43 12,-43 137,-43 137,-43 143,-43 149,-49 149,-55 149,-55 149,-67 149,-67 149,-73 143,-79 137,-79"/>
<text text-anchor="middle" x="74.5" y="-57.9" font-family="Noto Sans" font-size="12.00">Administrator browser</text>
</g>
<!-- proxy -->
<g id="node2" class="node">
<title>proxy</title>
<path fill="#fef3c7" stroke="#334155" d="M421,-115C421,-115 240,-115 240,-115 234,-115 228,-109 228,-103 228,-103 228,-89 228,-89 228,-83 234,-77 240,-77 240,-77 421,-77 421,-77 427,-77 433,-83 433,-89 433,-89 433,-103 433,-103 433,-109 427,-115 421,-115"/>
<text text-anchor="middle" x="330.5" y="-99.4" font-family="Noto Sans" font-size="12.00">Optional Caddy / NGINX</text>
<text text-anchor="middle" x="330.5" y="-86.4" font-family="Noto Sans" font-size="12.00">HTTPS + trusted&#45;proxy boundary</text>
</g>
<!-- browser&#45;&gt;proxy -->
<g id="edge1" class="edge">
<title>browser&#45;&gt;proxy</title>
<path fill="none" stroke="#64748b" d="M149.31,-71.17C171.29,-74.2 195.86,-77.58 219.61,-80.86"/>
<polygon fill="#64748b" stroke="#64748b" points="219.33,-83.64 227.63,-81.96 220.09,-78.1 219.33,-83.64"/>
<text text-anchor="middle" x="188.5" y="-81" font-family="Noto Sans" font-size="10.00" fill="#475569">HTTPS</text>
</g>
<!-- http -->
<g id="node3" class="node">
<title>http</title>
<path fill="#dbeafe" stroke="#334155" stroke-width="2" d="M608,-85C608,-85 494,-85 494,-85 488,-85 482,-79 482,-73 482,-73 482,-33 482,-33 482,-27 488,-21 494,-21 494,-21 608,-21 608,-21 614,-21 620,-27 620,-33 620,-33 620,-73 620,-73 620,-79 614,-85 608,-85"/>
<text text-anchor="middle" x="551" y="-69.4" font-family="Noto Sans" font-size="12.00">KWC HTTP boundary</text>
<text text-anchor="middle" x="551" y="-56.4" font-family="Noto Sans" font-size="12.00">exact leaf paths</text>
<text text-anchor="middle" x="551" y="-43.4" font-family="Noto Sans" font-size="12.00">body/rate/SSE limits</text>
<text text-anchor="middle" x="551" y="-30.4" font-family="Noto Sans" font-size="12.00">client&#45;IP resolution</text>
</g>
<!-- browser&#45;&gt;http -->
<g id="edge3" class="edge">
<title>browser&#45;&gt;http</title>
<path fill="none" stroke="#64748b" stroke-dasharray="5,2" d="M149.13,-54.61C174.14,-52.73 202.27,-50.93 228,-50 319.05,-46.72 341.9,-48.83 433,-50 446.12,-50.17 460.07,-50.44 473.6,-50.76"/>
<polygon fill="#64748b" stroke="#64748b" points="473.89,-53.57 481.95,-50.96 474.02,-47.97 473.89,-53.57"/>
<text text-anchor="middle" x="330.5" y="-53" font-family="Noto Sans" font-size="10.00" fill="#475569">direct deployment</text>
</g>
<!-- proxy&#45;&gt;http -->
<g id="edge2" class="edge">
<title>proxy&#45;&gt;http</title>
<path fill="none" stroke="#64748b" d="M428.29,-76.95C443.51,-73.96 459.05,-70.9 473.72,-68.01"/>
<polygon fill="#64748b" stroke="#64748b" points="474.47,-70.72 481.77,-66.43 473.38,-65.22 474.47,-70.72"/>
</g>
<!-- auth -->
<g id="node4" class="node">
<title>auth</title>
<path fill="#dcfce7" stroke="#334155" d="M866,-72C866,-72 681,-72 681,-72 675,-72 669,-66 669,-60 669,-60 669,-46 669,-46 669,-40 675,-34 681,-34 681,-34 866,-34 866,-34 872,-34 878,-40 878,-46 878,-46 878,-60 878,-60 878,-66 872,-72 866,-72"/>
<text text-anchor="middle" x="773.5" y="-56.4" font-family="Noto Sans" font-size="12.00">Session + role/permission checks</text>
<text text-anchor="middle" x="773.5" y="-43.4" font-family="Noto Sans" font-size="12.00">ADMIN / MODERATOR policy</text>
</g>
<!-- http&#45;&gt;auth -->
<g id="edge4" class="edge">
<title>http&#45;&gt;auth</title>
<path fill="none" stroke="#64748b" d="M620.26,-53C633.16,-53 646.96,-53 660.79,-53"/>
<polygon fill="#64748b" stroke="#64748b" points="660.93,-55.8 668.93,-53 660.93,-50.2 660.93,-55.8"/>
</g>
<!-- admin -->
<g id="node5" class="node">
<title>admin</title>
<path fill="#ecfeff" stroke="#334155" d="M1098,-78.5C1098,-78.5 939,-78.5 939,-78.5 933,-78.5 927,-72.5 927,-66.5 927,-66.5 927,-39.5 927,-39.5 927,-33.5 933,-27.5 939,-27.5 939,-27.5 1098,-27.5 1098,-27.5 1104,-27.5 1110,-33.5 1110,-39.5 1110,-39.5 1110,-66.5 1110,-66.5 1110,-72.5 1104,-78.5 1098,-78.5"/>
<text text-anchor="middle" x="1018.5" y="-62.9" font-family="Noto Sans" font-size="12.00">Admin handlers</text>
<text text-anchor="middle" x="1018.5" y="-49.9" font-family="Noto Sans" font-size="12.00">messages / emoji / reactions</text>
<text text-anchor="middle" x="1018.5" y="-36.9" font-family="Noto Sans" font-size="12.00">filter / settings / sessions</text>
</g>
<!-- auth&#45;&gt;admin -->
<g id="edge5" class="edge">
<title>auth&#45;&gt;admin</title>
<path fill="none" stroke="#64748b" d="M878.26,-53C891.61,-53 905.26,-53 918.53,-53"/>
<polygon fill="#64748b" stroke="#64748b" points="918.74,-55.8 926.74,-53 918.74,-50.2 918.74,-55.8"/>
</g>
<!-- data -->
<g id="node6" class="node">
<title>data</title>
<path fill="#f1f5f9" stroke="#334155" d="M1426.5,-106C1426.5,-106 1285.5,-106 1285.5,-106 1279.5,-106 1273.5,-100 1273.5,-94 1273.5,-94 1273.5,-82 1273.5,-82 1273.5,-76 1279.5,-70 1285.5,-70 1285.5,-70 1426.5,-70 1426.5,-70 1432.5,-70 1438.5,-76 1438.5,-82 1438.5,-82 1438.5,-94 1438.5,-94 1438.5,-100 1432.5,-106 1426.5,-106"/>
<text text-anchor="middle" x="1356" y="-84.9" font-family="Noto Sans" font-size="12.00">Runtime settings + stores</text>
</g>
<!-- admin&#45;&gt;data -->
<g id="edge6" class="edge">
<title>admin&#45;&gt;data</title>
<path fill="none" stroke="#64748b" d="M1110.29,-62.47C1158.35,-67.49 1217.18,-73.62 1265.11,-78.62"/>
<polygon fill="#64748b" stroke="#64748b" points="1265.07,-81.43 1273.31,-79.48 1265.65,-75.86 1265.07,-81.43"/>
</g>
<!-- audit -->
<g id="node7" class="node">
<title>audit</title>
<path fill="#f3e8ff" stroke="#334155" d="M1427,-38C1427,-38 1285,-38 1285,-38 1279,-38 1273,-32 1273,-26 1273,-26 1273,-12 1273,-12 1273,-6 1279,0 1285,0 1285,0 1427,0 1427,0 1433,0 1439,-6 1439,-12 1439,-12 1439,-26 1439,-26 1439,-32 1433,-38 1427,-38"/>
<text text-anchor="middle" x="1356" y="-22.4" font-family="Noto Sans" font-size="12.00">Append&#45;only audit log</text>
<text text-anchor="middle" x="1356" y="-9.4" font-family="Noto Sans" font-size="12.00">for administrative actions</text>
</g>
<!-- admin&#45;&gt;audit -->
<g id="edge7" class="edge">
<title>admin&#45;&gt;audit</title>
<path fill="none" stroke="#64748b" d="M1110.29,-43.8C1158.17,-38.95 1216.73,-33.01 1264.56,-28.17"/>
<polygon fill="#64748b" stroke="#64748b" points="1265.07,-30.93 1272.75,-27.34 1264.51,-25.36 1265.07,-30.93"/>
<text text-anchor="middle" x="1191.5" y="-44" font-family="Noto Sans" font-size="10.00" fill="#475569">security&#45;sensitive actions</text>
</g>
</g>
</svg>
