<?xml version="1.0" encoding="UTF-8" standalone="no"?>
<!DOCTYPE svg PUBLIC "-//W3C//DTD SVG 1.1//EN"
 "http://www.w3.org/Graphics/SVG/1.1/DTD/svg11.dtd">
<!-- Generated by graphviz version 2.42.4 (0)
 -->
<!-- Title: G Pages: 1 -->
<svg width="1652pt" height="376pt"
 viewBox="0.00 0.00 1652.00 376.00" xmlns="http://www.w3.org/2000/svg" xmlns:xlink="http://www.w3.org/1999/xlink">
<g id="graph0" class="graph" transform="scale(1 1) rotate(0) translate(18 358)">
<title>G</title>
<polygon fill="#f7f9fc" stroke="transparent" points="-18,18 -18,-358 1634,-358 1634,18 -18,18"/>
<g id="clust1" class="cluster">
<title>cluster_client</title>
<path fill="#f7f9fc" stroke="#cbd5e1" d="M20,-8C20,-8 222,-8 222,-8 228,-8 234,-14 234,-20 234,-20 234,-211 234,-211 234,-217 228,-223 222,-223 222,-223 20,-223 20,-223 14,-223 8,-217 8,-211 8,-211 8,-20 8,-20 8,-14 14,-8 20,-8"/>
<text text-anchor="middle" x="121" y="-207.8" font-family="Noto Sans" font-size="14.00">Clients</text>
</g>
<!-- browser -->
<g id="node1" class="node">
<title>browser</title>
<path fill="#e0f2fe" stroke="#334155" d="M172,-192C172,-192 70,-192 70,-192 64,-192 58,-186 58,-180 58,-180 58,-166 58,-166 58,-160 64,-154 70,-154 70,-154 172,-154 172,-154 178,-154 184,-160 184,-166 184,-166 184,-180 184,-180 184,-186 178,-192 172,-192"/>
<text text-anchor="middle" x="121" y="-176.4" font-family="Noto Sans" font-size="12.00">Web browser</text>
<text text-anchor="middle" x="121" y="-163.4" font-family="Noto Sans" font-size="12.00">Chat UI / Admin UI</text>
</g>
<!-- proxy -->
<g id="node4" class="node">
<title>proxy</title>
<path fill="#fef3c7" stroke="#334155" d="M497,-198.5C497,-198.5 317,-198.5 317,-198.5 311,-198.5 305,-192.5 305,-186.5 305,-186.5 305,-159.5 305,-159.5 305,-153.5 311,-147.5 317,-147.5 317,-147.5 497,-147.5 497,-147.5 503,-147.5 509,-153.5 509,-159.5 509,-159.5 509,-186.5 509,-186.5 509,-192.5 503,-198.5 497,-198.5"/>
<text text-anchor="middle" x="407" y="-182.9" font-family="Noto Sans" font-size="12.00">Optional reverse proxy</text>
<text text-anchor="middle" x="407" y="-169.9" font-family="Noto Sans" font-size="12.00">Caddy / NGINX</text>
<text text-anchor="middle" x="407" y="-156.9" font-family="Noto Sans" font-size="12.00">HTTPS + trusted proxy boundary</text>
</g>
<!-- browser&#45;&gt;proxy -->
<g id="edge1" class="edge">
<title>browser&#45;&gt;proxy</title>
<path fill="none" stroke="#64748b" d="M184.33,-173C217.25,-173 258.63,-173 296.69,-173"/>
<polygon fill="#64748b" stroke="#64748b" points="296.76,-175.8 304.76,-173 296.76,-170.2 296.76,-175.8"/>
<text text-anchor="middle" x="265.5" y="-176" font-family="Noto Sans" font-size="10.00" fill="#475569">HTTPS</text>
</g>
<!-- core -->
<g id="node5" class="node">
<title>core</title>
<path fill="#dbeafe" stroke="#334155" stroke-width="2" d="M807,-198.5C807,-198.5 628,-198.5 628,-198.5 622,-198.5 616,-192.5 616,-186.5 616,-186.5 616,-159.5 616,-159.5 616,-153.5 622,-147.5 628,-147.5 628,-147.5 807,-147.5 807,-147.5 813,-147.5 819,-153.5 819,-159.5 819,-159.5 819,-186.5 819,-186.5 819,-192.5 813,-198.5 807,-198.5"/>
<text text-anchor="middle" x="717.5" y="-182.9" font-family="Noto Sans" font-size="12.00">kwc&#45;core</text>
<text text-anchor="middle" x="717.5" y="-169.9" font-family="Noto Sans" font-size="12.00">CoreHttpServer + REST handlers</text>
<text text-anchor="middle" x="717.5" y="-156.9" font-family="Noto Sans" font-size="12.00">SseHub + auth/security</text>
</g>
<!-- browser&#45;&gt;core -->
<g id="edge3" class="edge">
<title>browser&#45;&gt;core</title>
<path fill="none" stroke="#64748b" stroke-dasharray="5,2" d="M135.87,-192.3C156.91,-219.72 199.79,-268.76 250,-288 391.93,-342.39 450.44,-343.37 592,-288 634.37,-271.43 670.97,-232.93 693.32,-205.03"/>
<polygon fill="#64748b" stroke="#64748b" points="695.67,-206.56 698.41,-198.54 691.27,-203.11 695.67,-206.56"/>
<text text-anchor="middle" x="407" y="-332" font-family="Noto Sans" font-size="10.00" fill="#475569">direct mode</text>
</g>
<!-- game -->
<g id="node2" class="node">
<title>game</title>
<path fill="#dcfce7" stroke="#334155" d="M214,-122C214,-122 28,-122 28,-122 22,-122 16,-116 16,-110 16,-110 16,-96 16,-96 16,-90 22,-84 28,-84 28,-84 214,-84 214,-84 220,-84 226,-90 226,-96 226,-96 226,-110 226,-110 226,-116 220,-122 214,-122"/>
<text text-anchor="middle" x="121" y="-106.4" font-family="Noto Sans" font-size="12.00">Minecraft server</text>
<text text-anchor="middle" x="121" y="-93.4" font-family="Noto Sans" font-size="12.00">Bukkit / Fabric / Forge / NeoForge</text>
</g>
<!-- adapters -->
<g id="node8" class="node">
<title>adapters</title>
<path fill="#dcfce7" stroke="#334155" d="M476.5,-115.5C476.5,-115.5 337.5,-115.5 337.5,-115.5 331.5,-115.5 325.5,-109.5 325.5,-103.5 325.5,-103.5 325.5,-76.5 325.5,-76.5 325.5,-70.5 331.5,-64.5 337.5,-64.5 337.5,-64.5 476.5,-64.5 476.5,-64.5 482.5,-64.5 488.5,-70.5 488.5,-76.5 488.5,-76.5 488.5,-103.5 488.5,-103.5 488.5,-109.5 482.5,-115.5 476.5,-115.5"/>
<text text-anchor="middle" x="407" y="-99.9" font-family="Noto Sans" font-size="12.00">Adapters</text>
<text text-anchor="middle" x="407" y="-86.9" font-family="Noto Sans" font-size="12.00">platform + map adapters</text>
<text text-anchor="middle" x="407" y="-73.9" font-family="Noto Sans" font-size="12.00">standalone frontend</text>
</g>
<!-- game&#45;&gt;adapters -->
<g id="edge4" class="edge">
<title>game&#45;&gt;adapters</title>
<path fill="none" stroke="#64748b" d="M226.14,-98.23C256.09,-96.86 288.47,-95.38 317.39,-94.06"/>
<polygon fill="#64748b" stroke="#64748b" points="317.59,-96.85 325.45,-93.69 317.33,-91.26 317.59,-96.85"/>
</g>
<!-- discord -->
<g id="node3" class="node">
<title>discord</title>
<path fill="#f3e8ff" stroke="#334155" d="M152,-52C152,-52 90,-52 90,-52 84,-52 78,-46 78,-40 78,-40 78,-28 78,-28 78,-22 84,-16 90,-16 90,-16 152,-16 152,-16 158,-16 164,-22 164,-28 164,-28 164,-40 164,-40 164,-46 158,-52 152,-52"/>
<text text-anchor="middle" x="121" y="-30.9" font-family="Noto Sans" font-size="12.00">DiscordSRV</text>
</g>
<!-- discord&#45;&gt;core -->
<g id="edge6" class="edge">
<title>discord&#45;&gt;core</title>
<path fill="none" stroke="#64748b" d="M164.1,-26.92C236.46,-16.38 388.25,-1.5 509,-38 576.86,-58.51 643.42,-108.64 682.18,-141.71"/>
<polygon fill="#64748b" stroke="#64748b" points="680.74,-144.16 688.63,-147.26 684.4,-139.92 680.74,-144.16"/>
<text text-anchor="middle" x="407" y="-41" font-family="Noto Sans" font-size="10.00" fill="#475569">integration</text>
</g>
<!-- proxy&#45;&gt;core -->
<g id="edge2" class="edge">
<title>proxy&#45;&gt;core</title>
<path fill="none" stroke="#64748b" d="M509.01,-173C540.6,-173 575.59,-173 607.69,-173"/>
<polygon fill="#64748b" stroke="#64748b" points="607.79,-175.8 615.79,-173 607.79,-170.2 607.79,-175.8"/>
<text text-anchor="middle" x="562.5" y="-176" font-family="Noto Sans" font-size="10.00" fill="#475569">HTTP/HTTPS</text>
</g>
<!-- core&#45;&gt;browser -->
<g id="edge11" class="edge">
<title>core&#45;&gt;browser</title>
<path fill="none" stroke="#64748b" stroke-dasharray="5,2" d="M615.8,-197.59C582.07,-204.7 544.11,-211.48 509,-215 418.78,-224.04 395.09,-225.21 305,-215 267.22,-210.72 225.87,-201.62 192.05,-192.98"/>
<polygon fill="#64748b" stroke="#64748b" points="192.52,-190.21 184.07,-190.92 191.12,-195.63 192.52,-190.21"/>
<text text-anchor="middle" x="407" y="-225" font-family="Noto Sans" font-size="10.00" fill="#475569">SSE live updates</text>
</g>
<!-- services -->
<g id="node6" class="node">
<title>services</title>
<path fill="#ecfeff" stroke="#334155" d="M1252,-254C1252,-254 994,-254 994,-254 988,-254 982,-248 982,-242 982,-242 982,-202 982,-202 982,-196 988,-190 994,-190 994,-190 1252,-190 1252,-190 1258,-190 1264,-196 1264,-202 1264,-202 1264,-242 1264,-242 1264,-248 1258,-254 1252,-254"/>
<text text-anchor="middle" x="1123" y="-238.4" font-family="Noto Sans" font-size="12.00">Chat services</text>
<text text-anchor="middle" x="1123" y="-225.4" font-family="Noto Sans" font-size="12.00">public / DM / group / reply / reaction</text>
<text text-anchor="middle" x="1123" y="-212.4" font-family="Noto Sans" font-size="12.00">profile / presence / chat events</text>
<text text-anchor="middle" x="1123" y="-199.4" font-family="Noto Sans" font-size="12.00">archive / typing / upload / emoji / notifications</text>
</g>
<!-- core&#45;&gt;services -->
<g id="edge7" class="edge">
<title>core&#45;&gt;services</title>
<path fill="none" stroke="#64748b" d="M819.02,-185.21C865.66,-190.87 922.04,-197.72 973.45,-203.96"/>
<polygon fill="#64748b" stroke="#64748b" points="973.38,-206.77 981.66,-204.96 974.06,-201.21 973.38,-206.77"/>
</g>
<!-- relay -->
<g id="node9" class="node">
<title>relay</title>
<path fill="#fce7f3" stroke="#334155" d="M1193.5,-158C1193.5,-158 1052.5,-158 1052.5,-158 1046.5,-158 1040.5,-152 1040.5,-146 1040.5,-146 1040.5,-106 1040.5,-106 1040.5,-100 1046.5,-94 1052.5,-94 1052.5,-94 1193.5,-94 1193.5,-94 1199.5,-94 1205.5,-100 1205.5,-106 1205.5,-106 1205.5,-146 1205.5,-146 1205.5,-152 1199.5,-158 1193.5,-158"/>
<text text-anchor="middle" x="1123" y="-142.4" font-family="Noto Sans" font-size="12.00">Relay Protocol 2.2</text>
<text text-anchor="middle" x="1123" y="-129.4" font-family="Noto Sans" font-size="12.00">groups → peers</text>
<text text-anchor="middle" x="1123" y="-116.4" font-family="Noto Sans" font-size="12.00">send/receive policy</text>
<text text-anchor="middle" x="1123" y="-103.4" font-family="Noto Sans" font-size="12.00">HKDF + AES&#45;GCM + HMAC</text>
</g>
<!-- core&#45;&gt;relay -->
<g id="edge9" class="edge">
<title>core&#45;&gt;relay</title>
<path fill="none" stroke="#64748b" d="M827.11,-160.35C891.34,-152.87 971.69,-143.51 1032.29,-136.45"/>
<polygon fill="#64748b" stroke="#64748b" points="826.64,-157.58 819.02,-161.29 827.29,-163.15 826.64,-157.58"/>
<polygon fill="#64748b" stroke="#64748b" points="1032.71,-139.22 1040.33,-135.51 1032.06,-133.66 1032.71,-139.22"/>
<text text-anchor="middle" x="900.5" y="-160" font-family="Noto Sans" font-size="10.00" fill="#475569">authenticated envelopes</text>
</g>
<!-- db -->
<g id="node7" class="node">
<title>db</title>
<path fill="#f1f5f9" stroke="#334155" d="M1604,-247.5C1604,-247.5 1439,-247.5 1439,-247.5 1433,-247.5 1427,-241.5 1427,-235.5 1427,-235.5 1427,-208.5 1427,-208.5 1427,-202.5 1433,-196.5 1439,-196.5 1439,-196.5 1604,-196.5 1604,-196.5 1610,-196.5 1616,-202.5 1616,-208.5 1616,-208.5 1616,-235.5 1616,-235.5 1616,-241.5 1610,-247.5 1604,-247.5"/>
<text text-anchor="middle" x="1521.5" y="-231.9" font-family="Noto Sans" font-size="12.00">Persistence</text>
<text text-anchor="middle" x="1521.5" y="-218.9" font-family="Noto Sans" font-size="12.00">SQLite WAL</text>
<text text-anchor="middle" x="1521.5" y="-205.9" font-family="Noto Sans" font-size="12.00">public + DM + group + archive</text>
</g>
<!-- services&#45;&gt;db -->
<g id="edge8" class="edge">
<title>services&#45;&gt;db</title>
<path fill="none" stroke="#64748b" d="M1272.33,-222C1321.06,-222 1374.09,-222 1418.57,-222"/>
<polygon fill="#64748b" stroke="#64748b" points="1272.07,-219.2 1264.07,-222 1272.07,-224.8 1272.07,-219.2"/>
<polygon fill="#64748b" stroke="#64748b" points="1418.77,-224.8 1426.77,-222 1418.77,-219.2 1418.77,-224.8"/>
<text text-anchor="middle" x="1345.5" y="-225" font-family="Noto Sans" font-size="10.00" fill="#475569">read/write</text>
</g>
<!-- adapters&#45;&gt;core -->
<g id="edge5" class="edge">
<title>adapters&#45;&gt;core</title>
<path fill="none" stroke="#64748b" d="M488.65,-111.7C526.89,-121.99 573.01,-134.4 613.73,-145.35"/>
<polygon fill="#64748b" stroke="#64748b" points="613.08,-148.07 621.53,-147.45 614.53,-142.67 613.08,-148.07"/>
</g>
<!-- peers -->
<g id="node10" class="node">
<title>peers</title>
<path fill="#fce7f3" stroke="#334155" d="M1589,-144C1589,-144 1454,-144 1454,-144 1448,-144 1442,-138 1442,-132 1442,-132 1442,-120 1442,-120 1442,-114 1448,-108 1454,-108 1454,-108 1589,-108 1589,-108 1595,-108 1601,-114 1601,-120 1601,-120 1601,-132 1601,-132 1601,-138 1595,-144 1589,-144"/>
<text text-anchor="middle" x="1521.5" y="-122.9" font-family="Noto Sans" font-size="12.00">Configured peer servers</text>
</g>
<!-- relay&#45;&gt;peers -->
<g id="edge10" class="edge">
<title>relay&#45;&gt;peers</title>
<path fill="none" stroke="#64748b" d="M1213.92,-126C1279.78,-126 1368.65,-126 1433.75,-126"/>
<polygon fill="#64748b" stroke="#64748b" points="1213.67,-123.2 1205.67,-126 1213.67,-128.8 1213.67,-123.2"/>
<polygon fill="#64748b" stroke="#64748b" points="1433.97,-128.8 1441.97,-126 1433.97,-123.2 1433.97,-128.8"/>
<text text-anchor="middle" x="1345.5" y="-129" font-family="Noto Sans" font-size="10.00" fill="#475569">authenticated envelopes</text>
</g>
</g>
</svg>
