<?xml version="1.0" encoding="UTF-8" standalone="no"?>
<!DOCTYPE svg PUBLIC "-//W3C//DTD SVG 1.1//EN"
 "http://www.w3.org/Graphics/SVG/1.1/DTD/svg11.dtd">
<!-- Generated by graphviz version 2.42.4 (0)
 -->
<!-- Title: G Pages: 1 -->
<svg width="1715pt" height="138pt"
 viewBox="0.00 0.00 1715.00 138.00" xmlns="http://www.w3.org/2000/svg" xmlns:xlink="http://www.w3.org/1999/xlink">
<g id="graph0" class="graph" transform="scale(1 1) rotate(0) translate(18 120)">
<title>G</title>
<polygon fill="#f7f9fc" stroke="transparent" points="-18,18 -18,-120 1697,-120 1697,18 -18,18"/>
<!-- live -->
<g id="node1" class="node">
<title>live</title>
<path fill="#e0f2fe" stroke="#334155" d="M221,-54C221,-54 12,-54 12,-54 6,-54 0,-48 0,-42 0,-42 0,-30 0,-30 0,-24 6,-18 12,-18 12,-18 221,-18 221,-18 227,-18 233,-24 233,-30 233,-30 233,-42 233,-42 233,-48 227,-54 221,-54"/>
<text text-anchor="middle" x="116.5" y="-32.9" font-family="Noto Sans" font-size="12.00">Live public / DM / group conversation</text>
</g>
<!-- select -->
<g id="node2" class="node">
<title>select</title>
<path fill="#fef3c7" stroke="#334155" d="M473,-102C473,-102 294,-102 294,-102 288,-102 282,-96 282,-90 282,-90 282,-78 282,-78 282,-72 288,-66 294,-66 294,-66 473,-66 473,-66 479,-66 485,-72 485,-78 485,-78 485,-90 485,-90 485,-96 479,-102 473,-102"/>
<text text-anchor="middle" x="383.5" y="-80.9" font-family="Noto Sans" font-size="12.00">User selects first + last message</text>
</g>
<!-- live&#45;&gt;select -->
<g id="edge1" class="edge">
<title>live&#45;&gt;select</title>
<path fill="none" stroke="#64748b" d="M216.93,-54.01C235.9,-57.45 255.85,-61.06 275.06,-64.54"/>
<polygon fill="#64748b" stroke="#64748b" points="274.58,-67.3 282.95,-65.97 275.58,-61.79 274.58,-67.3"/>
</g>
<!-- admin -->
<g id="node7" class="node">
<title>admin</title>
<path fill="#fee2e2" stroke="#334155" d="M736,-38C736,-38 521,-38 521,-38 515,-38 509,-32 509,-26 509,-26 509,-12 509,-12 509,-6 515,0 521,0 521,0 736,0 736,0 742,0 748,-6 748,-12 748,-12 748,-26 748,-26 748,-32 742,-38 736,-38"/>
<text text-anchor="middle" x="628.5" y="-22.4" font-family="Noto Sans" font-size="12.00">Admin source deletion / room deletion</text>
<text text-anchor="middle" x="628.5" y="-9.4" font-family="Noto Sans" font-size="12.00">remains authoritative</text>
</g>
<!-- live&#45;&gt;admin -->
<g id="edge6" class="edge">
<title>live&#45;&gt;admin</title>
<path fill="none" stroke="#64748b" d="M233.23,-32.14C312.78,-29.49 418.43,-25.97 500.34,-23.24"/>
<polygon fill="#64748b" stroke="#64748b" points="500.79,-26.03 508.69,-22.96 500.6,-20.43 500.79,-26.03"/>
</g>
<!-- validate -->
<g id="node3" class="node">
<title>validate</title>
<path fill="#dbeafe" stroke="#334155" stroke-width="2" d="M962,-102C962,-102 784,-102 784,-102 778,-102 772,-96 772,-90 772,-90 772,-76 772,-76 772,-70 778,-64 784,-64 784,-64 962,-64 962,-64 968,-64 974,-70 974,-76 974,-76 974,-90 974,-90 974,-96 968,-102 962,-102"/>
<text text-anchor="middle" x="873" y="-86.4" font-family="Noto Sans" font-size="12.00">Server re&#45;reads range</text>
<text text-anchor="middle" x="873" y="-73.4" font-family="Noto Sans" font-size="12.00">participant/visibility/lock checks</text>
</g>
<!-- select&#45;&gt;validate -->
<g id="edge2" class="edge">
<title>select&#45;&gt;validate</title>
<path fill="none" stroke="#64748b" d="M485.21,-83.79C566.43,-83.63 680.43,-83.39 763.63,-83.22"/>
<polygon fill="#64748b" stroke="#64748b" points="763.84,-86.02 771.83,-83.21 763.83,-80.42 763.84,-86.02"/>
</g>
<!-- snapshot -->
<g id="node4" class="node">
<title>snapshot</title>
<path fill="#dcfce7" stroke="#334155" d="M1235,-64.5C1235,-64.5 1035,-64.5 1035,-64.5 1029,-64.5 1023,-58.5 1023,-52.5 1023,-52.5 1023,-25.5 1023,-25.5 1023,-19.5 1029,-13.5 1035,-13.5 1035,-13.5 1235,-13.5 1235,-13.5 1241,-13.5 1247,-19.5 1247,-25.5 1247,-25.5 1247,-52.5 1247,-52.5 1247,-58.5 1241,-64.5 1235,-64.5"/>
<text text-anchor="middle" x="1135" y="-48.9" font-family="Noto Sans" font-size="12.00">Private immutable snapshot</text>
<text text-anchor="middle" x="1135" y="-35.9" font-family="Noto Sans" font-size="12.00">text + metadata</text>
<text text-anchor="middle" x="1135" y="-22.9" font-family="Noto Sans" font-size="12.00">attachments referenced, not copied</text>
</g>
<!-- validate&#45;&gt;snapshot -->
<g id="edge3" class="edge">
<title>validate&#45;&gt;snapshot</title>
<path fill="none" stroke="#64748b" d="M974.15,-66.05C987.42,-63.81 1001.14,-61.48 1014.69,-59.19"/>
<polygon fill="#64748b" stroke="#64748b" points="1015.23,-61.94 1022.65,-57.84 1014.3,-56.42 1015.23,-61.94"/>
</g>
<!-- view -->
<g id="node5" class="node">
<title>view</title>
<path fill="#e0f2fe" stroke="#334155" d="M1456,-57C1456,-57 1308,-57 1308,-57 1302,-57 1296,-51 1296,-45 1296,-45 1296,-33 1296,-33 1296,-27 1302,-21 1308,-21 1308,-21 1456,-21 1456,-21 1462,-21 1468,-27 1468,-33 1468,-33 1468,-45 1468,-45 1468,-51 1462,-57 1456,-57"/>
<text text-anchor="middle" x="1382" y="-35.9" font-family="Noto Sans" font-size="12.00">Saved conversation viewer</text>
</g>
<!-- snapshot&#45;&gt;view -->
<g id="edge4" class="edge">
<title>snapshot&#45;&gt;view</title>
<path fill="none" stroke="#64748b" d="M1247.03,-39C1260.56,-39 1274.27,-39 1287.5,-39"/>
<polygon fill="#64748b" stroke="#64748b" points="1287.68,-41.8 1295.68,-39 1287.68,-36.2 1287.68,-41.8"/>
</g>
<!-- pdf -->
<g id="node6" class="node">
<title>pdf</title>
<path fill="#f3e8ff" stroke="#334155" d="M1667,-58C1667,-58 1529,-58 1529,-58 1523,-58 1517,-52 1517,-46 1517,-46 1517,-32 1517,-32 1517,-26 1523,-20 1529,-20 1529,-20 1667,-20 1667,-20 1673,-20 1679,-26 1679,-32 1679,-32 1679,-46 1679,-46 1679,-52 1673,-58 1667,-58"/>
<text text-anchor="middle" x="1598" y="-42.4" font-family="Noto Sans" font-size="12.00">Browser print / PDF</text>
<text text-anchor="middle" x="1598" y="-29.4" font-family="Noto Sans" font-size="12.00">current KWC appearance</text>
</g>
<!-- view&#45;&gt;pdf -->
<g id="edge5" class="edge">
<title>view&#45;&gt;pdf</title>
<path fill="none" stroke="#64748b" d="M1468.19,-39C1481.51,-39 1495.31,-39 1508.69,-39"/>
<polygon fill="#64748b" stroke="#64748b" points="1508.97,-41.8 1516.97,-39 1508.97,-36.2 1508.97,-41.8"/>
</g>
<!-- admin&#45;&gt;snapshot -->
<g id="edge7" class="edge">
<title>admin&#45;&gt;snapshot</title>
<path fill="none" stroke="#b91c1c" d="M748.1,-23.7C828.36,-26.88 934,-31.07 1014.45,-34.26"/>
<polygon fill="#b91c1c" stroke="#b91c1c" points="1014.55,-37.07 1022.65,-34.59 1014.77,-31.47 1014.55,-37.07"/>
<text text-anchor="middle" x="873" y="-35" font-family="Noto Sans" font-size="10.00" fill="#991b1b">prune/remove affected content</text>
</g>
</g>
</svg>
