<?xml version="1.0" encoding="UTF-8" standalone="no"?>
<!DOCTYPE svg PUBLIC "-//W3C//DTD SVG 1.1//EN"
 "http://www.w3.org/Graphics/SVG/1.1/DTD/svg11.dtd">
<!-- Generated by graphviz version 2.42.4 (0)
 -->
<!-- Title: G Pages: 1 -->
<svg width="1278pt" height="233pt"
 viewBox="0.00 0.00 1278.00 233.00" xmlns="http://www.w3.org/2000/svg" xmlns:xlink="http://www.w3.org/1999/xlink">
<g id="graph0" class="graph" transform="scale(1 1) rotate(0) translate(18 215)">
<title>G</title>
<polygon fill="#f7f9fc" stroke="transparent" points="-18,18 -18,-215 1260,-215 1260,18 -18,18"/>
<!-- s1 -->
<g id="node1" class="node">
<title>s1</title>
<path fill="#dbeafe" stroke="#334155" d="M126,-100.5C126,-100.5 12,-100.5 12,-100.5 6,-100.5 0,-94.5 0,-88.5 0,-88.5 0,-61.5 0,-61.5 0,-55.5 6,-49.5 12,-49.5 12,-49.5 126,-49.5 126,-49.5 132,-49.5 138,-55.5 138,-61.5 138,-61.5 138,-88.5 138,-88.5 138,-94.5 132,-100.5 126,-100.5"/>
<text text-anchor="middle" x="69" y="-84.9" font-family="Noto Sans" font-size="12.00">Server 1</text>
<text text-anchor="middle" x="69" y="-71.9" font-family="Noto Sans" font-size="12.00">peer config: server&#45;2</text>
<text text-anchor="middle" x="69" y="-58.9" font-family="Noto Sans" font-size="12.00">group: main</text>
</g>
<!-- msg -->
<g id="node2" class="node">
<title>msg</title>
<path fill="#fce7f3" stroke="#334155" d="M473,-183.5C473,-183.5 271,-183.5 271,-183.5 265,-183.5 259,-177.5 259,-171.5 259,-171.5 259,-144.5 259,-144.5 259,-138.5 265,-132.5 271,-132.5 271,-132.5 473,-132.5 473,-132.5 479,-132.5 485,-138.5 485,-144.5 485,-144.5 485,-171.5 485,-171.5 485,-177.5 479,-183.5 473,-183.5"/>
<text text-anchor="middle" x="372" y="-167.9" font-family="Noto Sans" font-size="12.00">1. /relay/v2/message</text>
<text text-anchor="middle" x="372" y="-154.9" font-family="Noto Sans" font-size="12.00">independent request authentication</text>
<text text-anchor="middle" x="372" y="-141.9" font-family="Noto Sans" font-size="12.00">HKDF&#45;SHA256 + AES&#45;256&#45;GCM</text>
</g>
<!-- s1&#45;&gt;msg -->
<g id="edge1" class="edge">
<title>s1&#45;&gt;msg</title>
<path fill="none" stroke="#64748b" d="M138.3,-93.83C177.41,-104.62 227.2,-118.35 270.68,-130.34"/>
<polygon fill="#64748b" stroke="#64748b" points="269.98,-133.05 278.44,-132.48 271.47,-127.65 269.98,-133.05"/>
</g>
<!-- probe -->
<g id="node5" class="node">
<title>probe</title>
<path fill="#fef3c7" stroke="#334155" d="M457,-100.5C457,-100.5 287,-100.5 287,-100.5 281,-100.5 275,-94.5 275,-88.5 275,-88.5 275,-61.5 275,-61.5 275,-55.5 281,-49.5 287,-49.5 287,-49.5 457,-49.5 457,-49.5 463,-49.5 469,-55.5 469,-61.5 469,-61.5 469,-88.5 469,-88.5 469,-94.5 463,-100.5 457,-100.5"/>
<text text-anchor="middle" x="372" y="-84.9" font-family="Noto Sans" font-size="12.00">Optional /relay/v2/handshake</text>
<text text-anchor="middle" x="372" y="-71.9" font-family="Noto Sans" font-size="12.00">stateless identity/health probe</text>
<text text-anchor="middle" x="372" y="-58.9" font-family="Noto Sans" font-size="12.00">creates no routing state</text>
</g>
<!-- s1&#45;&gt;probe -->
<g id="edge5" class="edge">
<title>s1&#45;&gt;probe</title>
<path fill="none" stroke="#64748b" stroke-dasharray="5,2" d="M138.3,-75C176.19,-75 224.1,-75 266.59,-75"/>
<polygon fill="#64748b" stroke="#64748b" points="266.73,-77.8 274.73,-75 266.73,-72.2 266.73,-77.8"/>
<text text-anchor="middle" x="198.5" y="-78" font-family="Noto Sans" font-size="10.00" fill="#475569">diagnostics only</text>
</g>
<!-- s2 -->
<g id="node3" class="node">
<title>s2</title>
<path fill="#dbeafe" stroke="#334155" d="M836,-100.5C836,-100.5 722,-100.5 722,-100.5 716,-100.5 710,-94.5 710,-88.5 710,-88.5 710,-61.5 710,-61.5 710,-55.5 716,-49.5 722,-49.5 722,-49.5 836,-49.5 836,-49.5 842,-49.5 848,-55.5 848,-61.5 848,-61.5 848,-88.5 848,-88.5 848,-94.5 842,-100.5 836,-100.5"/>
<text text-anchor="middle" x="779" y="-84.9" font-family="Noto Sans" font-size="12.00">Server 2</text>
<text text-anchor="middle" x="779" y="-71.9" font-family="Noto Sans" font-size="12.00">peer config: server&#45;1</text>
<text text-anchor="middle" x="779" y="-58.9" font-family="Noto Sans" font-size="12.00">group: main</text>
</g>
<!-- msg&#45;&gt;s2 -->
<g id="edge2" class="edge">
<title>msg&#45;&gt;s2</title>
<path fill="none" stroke="#64748b" d="M485.01,-135.05C554.02,-120.9 640.68,-103.14 701.79,-90.62"/>
<polygon fill="#64748b" stroke="#64748b" points="702.59,-93.31 709.87,-88.96 701.47,-87.83 702.59,-93.31"/>
</g>
<!-- note -->
<g id="node6" class="node">
<title>note</title>
<polygon fill="#fff7ed" stroke="#334155" points="946,-197 606,-197 606,-133 952,-133 952,-191 946,-197"/>
<polyline fill="none" stroke="#334155" points="946,-197 946,-191 "/>
<polyline fill="none" stroke="#334155" points="952,-191 946,-191 "/>
<text text-anchor="middle" x="779" y="-181.4" font-family="Noto Sans" font-size="12.00">Direct messages authenticate independently per request.</text>
<text text-anchor="middle" x="779" y="-168.4" font-family="Noto Sans" font-size="12.00">Forwarding is same&#45;group and peer&#45;specific.</text>
<text text-anchor="middle" x="779" y="-155.4" font-family="Noto Sans" font-size="12.00">HTTP direct is allowed with warning;</text>
<text text-anchor="middle" x="779" y="-142.4" font-family="Noto Sans" font-size="12.00">HTTP peers are excluded only from forwarding.</text>
</g>
<!-- msg&#45;&gt;note -->
<g id="edge7" class="edge">
<title>msg&#45;&gt;note</title>
<path fill="none" stroke="#64748b" stroke-dasharray="5,2" d="M485.01,-159.94C522.35,-160.58 564.86,-161.32 605.69,-162.02"/>
</g>
<!-- resp -->
<g id="node4" class="node">
<title>resp</title>
<path fill="#f3e8ff" stroke="#334155" d="M1230,-38C1230,-38 1013,-38 1013,-38 1007,-38 1001,-32 1001,-26 1001,-26 1001,-12 1001,-12 1001,-6 1007,0 1013,0 1013,0 1230,0 1230,0 1236,0 1242,-6 1242,-12 1242,-12 1242,-26 1242,-26 1242,-32 1236,-38 1230,-38"/>
<text text-anchor="middle" x="1121.5" y="-22.4" font-family="Noto Sans" font-size="12.00">2. Authenticated response</text>
<text text-anchor="middle" x="1121.5" y="-9.4" font-family="Noto Sans" font-size="12.00">HMAC over status/body/request nonce</text>
</g>
<!-- s2&#45;&gt;resp -->
<g id="edge3" class="edge">
<title>s2&#45;&gt;resp</title>
<path fill="none" stroke="#64748b" d="M848.09,-63.8C890.64,-56.8 946.71,-47.58 996.91,-39.33"/>
<polygon fill="#64748b" stroke="#64748b" points="997.48,-42.07 1004.92,-38.01 996.57,-36.54 997.48,-42.07"/>
</g>
<!-- resp&#45;&gt;s1 -->
<g id="edge4" class="edge">
<title>resp&#45;&gt;s1</title>
<path fill="none" stroke="#64748b" d="M1000.84,-13.34C834,-7.17 522.31,-1.93 259,-33 221.45,-37.43 180.41,-46.08 146.2,-54.38"/>
<polygon fill="#64748b" stroke="#64748b" points="145.21,-51.74 138.11,-56.37 146.54,-57.18 145.21,-51.74"/>
</g>
<!-- probe&#45;&gt;s2 -->
<g id="edge6" class="edge">
<title>probe&#45;&gt;s2</title>
<path fill="none" stroke="#64748b" stroke-dasharray="5,2" d="M469.24,-75C540.24,-75 635.57,-75 701.43,-75"/>
<polygon fill="#64748b" stroke="#64748b" points="701.71,-77.8 709.71,-75 701.71,-72.2 701.71,-77.8"/>
<text text-anchor="middle" x="545.5" y="-78" font-family="Noto Sans" font-size="10.00" fill="#475569">diagnostics only</text>
</g>
</g>
</svg>
